<?xml version="1.0" encoding="UTF-8" standalone="no"?>
<svg width="627px" height="143px" viewBox="0 0 627 143" version="1.1" xmlns="http://www.w3.org/2000/svg" xmlns:xlink="http://www.w3.org/1999/xlink" xmlns:sketch="http://www.bohemiancoding.com/sketch/ns">
    <!-- Generator: Sketch 3.4.2 (15855) - http://www.bohemiancoding.com/sketch -->
    <title>enrise-logo-RGB</title>
    <desc>Created with Sketch.</desc>
    <defs>
        <path id="path-1" d="M0.06,0.987 L626.152,0.987 L626.152,142.94 L0.06,142.94"></path>
    </defs>
    <g id="Page-1" stroke="none" stroke-width="1" fill="none" fill-rule="evenodd" sketch:type="MSPage">
        <g id="enrise-logo-RGB" sketch:type="MSLayerGroup">
            <g id="Group-4">
                <mask id="mask-2" sketch:name="Clip 2" fill="white">
                    <use xlink:href="#path-1"></use>
                </mask>
                <g id="Clip-2"></g>
                <path d="M107.97,32.429 L107.97,110.509 L78.09,110.509 L78.09,62.659 L29.89,62.659 L29.89,32.429 L107.97,32.429" id="Fill-1" fill="#FFFFFF" sketch:type="MSShapeGroup" mask="url(#mask-2)"></path>
                <path d="M107.97,110.509 L107.97,32.429 L29.89,32.429 L29.89,62.659 L78.09,62.659 L78.09,110.509 L107.97,110.509 L107.97,110.509 Z M0,2.899 L137.85,2.899 L137.85,140.749 L0,140.749 L0,2.899 Z" id="Fill-3" fill="#F2A900" sketch:type="MSShapeGroup" mask="url(#mask-2)"></path>
            </g>
            <path d="M190.429,141.292 L190.429,127.813 L200.681,127.813 L200.681,16.175 L190.429,16.175 L190.429,2.695 L258.209,2.695 L258.209,40.098 L240.932,40.098 L240.932,16.175 L217.959,16.175 L217.959,62.5 L244.727,62.5 L244.727,75.979 L217.959,75.979 L217.959,127.813 L241.12,127.813 L241.12,103.32 L258.398,103.32 L258.398,141.292 L190.429,141.292" id="Fill-5" fill="#53565A" sketch:type="MSShapeGroup"></path>
            <path d="M339.274,16.175 L339.274,141.292 L324.846,141.292 L293.331,48.071 L293.331,127.813 L302.63,127.813 L302.63,141.292 L267.7,141.292 L267.7,127.813 L277.95,127.813 L277.95,16.175 L267.7,16.175 L267.7,2.695 L293.9,2.695 L323.895,91.737 L323.895,16.175 L314.593,16.175 L314.593,2.695 L349.529,2.695 L349.529,16.175 L339.274,16.175" id="Fill-6" fill="#53565A" sketch:type="MSShapeGroup"></path>
            <path d="M408.454,29.086 C408.454,21.301 405.415,16.175 395.354,16.175 L384.913,16.175 L384.913,64.59 L395.354,64.59 C405.227,64.59 408.454,59.841 408.454,51.679 L408.454,29.086 L408.454,29.086 Z M423.455,141.292 C414.34,141.292 408.643,137.874 408.643,124.774 L408.643,90.981 C408.643,83.193 405.607,78.067 395.545,78.067 L384.913,78.067 L384.913,127.813 L394.783,127.813 L394.783,141.292 L357.383,141.292 L357.383,127.813 L367.635,127.813 L367.635,16.175 L357.383,16.175 L357.383,2.695 L397.44,2.695 C416.996,2.695 425.732,10.669 425.732,28.326 L425.732,52.247 C425.732,62.88 421.745,69.145 411.11,71.424 C420.797,73.703 425.92,79.589 425.92,90.029 L425.92,122.495 C425.92,126.671 426.871,127.813 430.858,127.813 L435.033,127.813 L435.033,141.292 L423.455,141.292 L423.455,141.292 Z" id="Fill-7" fill="#53565A" sketch:type="MSShapeGroup"></path>
            <g id="Group-11" transform="translate(442.000000, 0.000000)" fill="#53565A" sketch:type="MSShapeGroup">
                <path d="M0.717,141.292 L0.717,127.813 L10.972,127.813 L10.972,16.175 L0.717,16.175 L0.717,2.695 L38.5,2.695 L38.5,16.175 L28.247,16.175 L28.247,127.813 L38.5,127.813 L38.5,141.292 L0.717,141.292" id="Fill-8"></path>
                <path d="M77.514,143 C59.097,143 48.275,137.683 48.275,119.271 L48.275,103.32 L65.551,103.32 L65.551,119.079 C65.551,126.671 68.401,129.521 77.514,129.521 C85.867,129.521 89.473,127.433 89.473,119.079 L89.473,87.941 C89.473,81.676 88.524,80.537 81.878,79.209 L65.362,76.741 C53.591,75.217 48.655,70.664 48.655,56.805 L48.655,24.717 C48.655,8.581 57.389,0.987 77.514,0.987 C95.36,0.987 106.372,7.253 106.372,24.717 L106.372,40.098 L89.095,40.098 L89.095,24.91 C89.095,17.505 86.059,14.464 77.514,14.464 C70.109,14.464 65.931,16.745 65.931,24.91 L65.931,52.629 C65.931,59.27 67.26,60.223 73.526,61.362 L90.045,63.83 C101.626,65.349 106.75,70.093 106.75,83.764 L106.75,119.271 C106.75,135.975 97.257,143 77.514,143" id="Fill-10"></path>
            </g>
            <path d="M558.186,141.292 L558.186,127.813 L568.436,127.813 L568.436,16.175 L558.186,16.175 L558.186,2.695 L625.964,2.695 L625.964,40.098 L608.686,40.098 L608.686,16.175 L585.713,16.175 L585.713,62.5 L612.482,62.5 L612.482,75.979 L585.713,75.979 L585.713,127.813 L608.877,127.813 L608.877,103.32 L626.152,103.32 L626.152,141.292 L558.186,141.292" id="Fill-12" fill="#53565A" sketch:type="MSShapeGroup"></path>
        </g>
    </g>
</svg>